<?xml version="1.0" encoding="iso-8859-1"?>
<!-- Generator: Adobe Illustrator 18.0.0, SVG Export Plug-In . SVG Version: 6.00 Build 0)  -->
<!DOCTYPE svg PUBLIC "-//W3C//DTD SVG 1.1//EN" "http://www.w3.org/Graphics/SVG/1.1/DTD/svg11.dtd">
<svg version="1.1" id="Capa_1" xmlns="http://www.w3.org/2000/svg" xmlns:xlink="http://www.w3.org/1999/xlink" x="0px" y="0px"
	 viewBox="0 0 196.685 196.685" style="enable-background:new 0 0 196.685 196.685;" xml:space="preserve">
<g>
	<path d="M118.613,27.341c-4.852-4.061-10.43-7.472-16.246-9.959c-0.577-0.247-1.115-0.061-1.465,0.288
		c-0.364-0.236-0.829-0.291-1.321,0.048c-14.025,9.665-28.448,17.981-43.559,25.808c-1.015,0.526-0.693,1.663,0.077,2.101
		c-0.952,0.053-1.532,1.505-0.527,2.211c2.555,1.795,5.108,3.591,7.657,5.395c2.183,1.545,4.623,3.867,7.27,4.412
		c0.722,0.148,1.44-0.522,1.254-1.234c0.269,0.366,0.745,0.597,1.279,0.341c15.75-7.577,30.719-16.873,45.053-26.849
		c0.306-0.213,0.464-0.49,0.549-0.78C119.077,28.619,119.221,27.849,118.613,27.341z M72.019,55.017
		c-0.444,0.263-0.497,0.663-0.403,1.031c-1.505-2.185-4.319-3.498-6.524-4.913c-2.769-1.776-5.541-3.545-8.308-5.324
		c0.164-0.007,0.333-0.04,0.506-0.117C72.651,38.86,87.402,30,100.98,20.11c0.181-0.132,0.315-0.286,0.412-0.452
		c4.79,2.714,9.385,5.612,13.948,8.663C101.19,37.735,86.644,46.362,72.019,55.017z"/>
	<path d="M188.341,60.513c-0.089-0.102-0.121-0.223-0.261-0.305c-31.589-18.521-61.742-37.946-91.003-60.003
		c-0.792-0.597-1.758,0.221-1.821,1.047C69.503,14.466,41.182,26.01,17.948,43.387c-0.359,0.268-0.475,0.646-0.446,1.005
		c-0.34,0.327-0.598,0.759-0.607,1.214C6.699,52.871,3.979,67.577,12.666,77.14c-0.681,0.554-1.016,1.63-0.211,2.26
		c7.456,5.829,15.052,11.559,22.781,17.138c-2.775,0.818-5.552,1.989-8.111,2.892c-0.324-0.129-0.69-0.155-1.04,0.018
		c-13.319,6.614-15.232,25.413-5.37,35.702c0.344,0.359,0.801,0.321,1.187,0.137c1.556,1.091,3.115,2.178,4.671,3.268
		c0.003,0.003,0.008,0.004,0.011,0.008c11.268,7.893,22.547,15.77,33.819,23.659c-0.185,0.275-0.08,0.737,0.351,0.728
		c0.223-0.005,0.446-0.01,0.669-0.014c15.842,11.089,31.66,22.213,47.373,33.482c0.896,0.643,1.754,0.029,2.018-0.801
		c0.108-0.054,0.159-0.163,0.236-0.251c0.307,0.401,0.832,0.611,1.407,0.258c24.548-15.048,48.832-30.527,73.373-45.59
		c1.463-0.898,0.448-3.021-0.966-2.796c-0.082-0.058-0.108-0.15-0.215-0.19c-4.764-1.805-8.475-5.418-9.354-10.574
		c-0.976-5.723,2.102-9.091,5.449-13.142c0.496-0.6,0.238-1.694-0.454-1.923c-0.038-0.108-0.107-0.202-0.172-0.297
		c0.281,0.06,0.559,0.154,0.841,0.209c0.953,0.186,1.317-1.127,0.4-1.452c-6.757-2.399-12.797-5.433-18.827-9.303
		c-0.14-0.089-0.274-0.122-0.408-0.16c7.833-4.62,15.645-9.235,23.464-13.688c1.69-0.963,0.232-3.521-1.454-2.699
		c-8.418-8.638,1.375-23.244,5.03-32.412C189.401,61.008,188.882,60.578,188.341,60.513z M33.14,90.654
		c6.118-0.62,12.206-0.738,18.361-0.761c0.904-0.003,0.891-1.342,0-1.395c-6.588-0.386-13.197,0.219-19.707,1.231
		c-3.76-2.636-7.465-5.381-11.184-8.101c6.337-0.211,12.679-0.358,19.005-0.8c0.756-0.053,0.774-1.203,0-1.19
		c-6.624,0.108-13.237,0.54-19.852,0.884c-0.181,0.009-0.317,0.086-0.408,0.196c-1.532-1.127-3.093-2.196-4.615-3.343
		c-0.016-0.037,0.004-0.071-0.02-0.108c-1.114-1.763-1.922-3.583-2.586-5.415c3.428-0.17,6.857-0.319,10.28-0.554
		c0.793-0.054,0.806-1.285,0-1.246c-3.557,0.175-7.109,0.44-10.662,0.68c-1.05-3.379-1.3-6.787-0.777-10.041
		c5.137,0.047,10.268,0.091,15.405,0.001c0.766-0.013,0.767-1.176,0-1.19c-5.054-0.089-10.103-0.047-15.156,0
		c0.49-2.175,1.349-4.265,2.591-6.208c1.764,0.03,3.53,0.083,5.293,0.025c0.634-0.021,0.635-0.965,0-0.986
		c-1.525-0.05-3.053-0.006-4.58,0.022c1.181-1.627,2.589-3.162,4.372-4.512c27.066,22.272,56.018,42.433,86.149,60.307
		c0.189,0.112,0.369,0.143,0.541,0.143c-6.64,6.811-9.882,18.045-5.308,25.427c-5.889-3.547-11.745-7.114-17.578-10.703
		c3.49-0.261,6.979-0.587,10.449-1.029c0.45-0.057,0.475-0.758,0-0.725c-3.76,0.262-7.519,0.637-11.259,1.108
		c-0.055,0.007-0.084,0.046-0.126,0.07c-3.157-1.946-6.282-3.931-9.42-5.898c6.277-0.164,12.571-0.286,18.822-0.844
		c0.82-0.073,0.851-1.317,0-1.301c-6.735,0.125-13.466,0.755-20.18,1.296c-8.115-5.101-16.149-10.314-24.121-15.637
		c5.077-0.529,10.153-1.052,15.22-1.677c0.628-0.077,0.649-1.07,0-1.004c-5.486,0.555-10.956,1.218-16.43,1.879
		C41.459,96.438,37.296,93.553,33.14,90.654z M92.734,181.498c1.855-0.504,3.738-0.821,5.706-0.745c0.455,0.017,0.454-0.688,0-0.707
		c-2.23-0.091-4.363,0.28-6.461,0.918c-2.121-1.496-4.265-2.957-6.388-4.449c5.161-0.269,10.312-0.284,15.49-0.163
		c0.653,0.015,0.637-0.954,0-1.004c-5.576-0.435-11.157-0.207-16.717,0.312c-2.888-2.027-5.802-4.015-8.695-6.035
		c3.404,0.066,6.806,0.109,10.211,0.072c0.67-0.007,0.671-1.034,0-1.041c-3.527-0.039-7.051,0.004-10.577,0.075
		c-0.247,0.005-0.367,0.176-0.401,0.362c-3.006-2.098-6.036-4.162-9.048-6.252c5.795-0.119,11.588-0.251,17.378-0.558
		c0.664-0.035,0.675-1.049,0-1.041c-6.269,0.072-12.529,0.346-18.791,0.623c-7.071-4.9-14.155-9.78-21.272-14.614
		c5.43-0.377,10.85-0.785,16.269-1.312c0.69-0.067,0.715-1.133,0-1.097c-6.027,0.308-12.035,0.732-18.049,1.219
		c-3.681-2.495-7.394-4.943-11.093-7.412c3.987-0.115,7.973-0.305,11.952-0.534c0.854-0.049,0.867-1.365,0-1.339
		c-4.613,0.136-9.233,0.304-13.839,0.612c-2.178-1.449-4.337-2.926-6.525-4.36c-0.383-0.581-0.635-1.159-0.965-1.739
		c4.907-0.104,9.813-0.332,14.714-0.601c0.76-0.042,0.769-1.219,0-1.19c-5.093,0.189-10.188,0.415-15.272,0.786
		c-1.391-2.684-2.184-5.344-2.507-7.957c3.774-0.498,7.548-0.988,11.296-1.655c0.56-0.1,0.438-1.074-0.136-1.004
		c-3.758,0.456-7.489,1.084-11.221,1.708c-0.16-2.107,0.047-4.172,0.534-6.189c2.524-0.283,5.047-0.573,7.559-0.957
		c0.697-0.107,0.541-1.313-0.168-1.242c-2.36,0.238-4.708,0.56-7.056,0.892c1.214-3.877,3.607-7.536,7.111-10.837
		c26.062,21.897,54.325,42.138,83.718,59.32c-6.725,8.06-6.713,20.536-1.883,29.653C102.657,188.495,97.695,184.997,92.734,181.498z
		 M182.459,148.548c-24.088,14.398-48.031,29.198-71.165,45.085c-0.165,0.114-0.28,0.25-0.365,0.396
		c-5.988-10.727-4.577-20.592,0.801-31.227c0.148-0.293,0.091-0.571-0.024-0.826c0.165-0.018,0.331-0.051,0.467-0.186
		c8.628-8.618,21.68-13.521,32.251-19.31c9.792-5.363,19.756-10.523,29.406-16.162C169.366,133.744,173.852,145.466,182.459,148.548
		z M178.498,120.707c-14.529,7.021-28.501,15.373-42.637,23.161c-8.684,4.784-18.662,8.749-24.878,16.736
		c-28.615-18.824-56.461-38.163-83.785-58.826c0.139-0.119,0.265-0.242,0.407-0.36c0.177-0.146,0.275-0.309,0.339-0.477
		c3.136-0.77,6.703-1.418,9.802-2.63c21.811,15.586,44.683,29.911,68.649,41.56c0.071,0.035,0.129-0.005,0.199,0.015
		c0.16,0.379,0.561,0.644,1.082,0.399c0.292-0.138,0.581-0.289,0.873-0.428c0.089,0.028,0.161,0.069,0.251,0.097
		c0.596,0.181,0.972-0.246,1.042-0.73c17.27-8.279,34.056-18.078,50.718-27.9c-0.197,0.573-0.101,1.257,0.535,1.696
		C166.294,116.606,172.326,119.193,178.498,120.707z M181.979,95.204c-24.433,13.835-50.053,26.874-73.381,42.48
		c-29.273-20.427,23.178-41.307,34.524-47.242c14.11-7.38,27.825-15.408,41.328-23.834C179.596,75.77,173.895,88.165,181.979,95.204
		z M185.59,62.209c-14.428,8.947-29.107,17.475-44.112,25.421c-11.351,6.012-25.409,10.721-34.886,19.731
		c0.056-0.373-0.065-0.774-0.472-1.042c-29.155-19.212-57.32-39.501-85.008-60.746c0.007-0.492-0.251-0.95-0.64-1.225
		C44.858,29.011,71.613,17.01,97.217,3.88c0.13-0.067,0.205-0.16,0.302-0.243c27.249,22.288,57.262,42.474,88.672,58.349
		C185.996,62.016,185.795,62.082,185.59,62.209z"/>
	<path d="M68.029,153.562c-4.287-0.383-8.441-0.103-12.664,0.694c-0.499,0.094-0.28,0.828,0.208,0.753
		c4.118-0.635,8.295-0.795,12.457-0.628C68.561,154.401,68.546,153.608,68.029,153.562z"/>
	<path d="M76.479,105.857c-5.748,0.792-11.255,1.303-17.051,0.782c-0.601-0.054-0.583,0.861,0,0.93
		c5.747,0.672,11.692,0.72,17.353-0.618C77.51,106.778,77.178,105.761,76.479,105.857z"/>
</g>
<g>
</g>
<g>
</g>
<g>
</g>
<g>
</g>
<g>
</g>
<g>
</g>
<g>
</g>
<g>
</g>
<g>
</g>
<g>
</g>
<g>
</g>
<g>
</g>
<g>
</g>
<g>
</g>
<g>
</g>
</svg>
